<svg width="87" height="73" fill="none" xmlns="http://www.w3.org/2000/svg"><path fill-rule="evenodd" clip-rule="evenodd" d="M44.927 46.487H0v3.193c0 2.868 2.385 5.25 5.256 5.25h39.622c.022-2.795.04-5.675.049-8.443z" fill="url(#paint0_linear_2_47)"/><path fill-rule="evenodd" clip-rule="evenodd" d="M10.105 0h51.961c1.266 0 2.223.956 2.24 2.074v22.299H39.681c1.549.268 4.73 1.846 5.068 6.02.137 1.692.186 6.346.187 11.986H10.105a1.986 1.986 0 0 1-1.98-1.977V1.977A1.988 1.988 0 0 1 10.106 0z" fill="url(#paint1_linear_2_47)"/><path d="M62.084 31.2c2.112-5.216 4.646-6.822 7.18-6.822H36.745c-4.73 1.927-4.645 5.218-3.8 6.823h29.138z" fill="url(#paint2_linear_2_47)"/><path d="M44.747 30.393c-.337-4.174-3.519-5.752-5.067-6.02h32.095c3.378 1.285 5.068 4.549 5.49 6.02v40.935c-7.18.267-22.636.883-27.028 1.204-4.392.32-5.49-3.344-5.49-5.217.141-10.569.338-32.748 0-36.922z" fill="url(#paint3_linear_2_47)"/><rect x="48.546" y="52.951" width="25.338" height="1.605" rx=".803" fill="url(#paint4_linear_2_47)"/><rect x="48.546" y="58.671" width="25.338" height="1.605" rx=".803" fill="url(#paint5_linear_2_47)"/><rect x="48.546" y="33.202" width="25.338" height="15.25" rx=".97" fill="url(#paint6_linear_2_47)"/><path d="M57.415 65.708c-2.111 5.218-4.645 6.823-7.18 6.823h32.518c4.73-1.927 4.646-5.217 3.801-6.823H57.415z" fill="url(#paint7_linear_2_47)"/><defs><linearGradient id="paint0_linear_2_47" x1="7.711" y1="57.491" x2="7.788" y2="49.943" gradientUnits="userSpaceOnUse"><stop stop-color="#BDD0FF"/><stop offset="1" stop-color="#195AFE"/></linearGradient><linearGradient id="paint1_linear_2_47" x1="17.768" y1="55.229" x2="19.326" y2="17.403" gradientUnits="userSpaceOnUse"><stop stop-color="#BDD0FF"/><stop offset="1" stop-color="#195AFE"/></linearGradient><linearGradient id="paint2_linear_2_47" x1="50.882" y1="31.201" x2="50.882" y2="24.378" gradientUnits="userSpaceOnUse"><stop stop-color="#90AFFF"/><stop offset="1" stop-color="#3E74FE"/></linearGradient><linearGradient id="paint3_linear_2_47" x1="66.739" y1="56.014" x2="37.77" y2="43.039" gradientUnits="userSpaceOnUse"><stop stop-color="#D0DDFF"/><stop offset="1" stop-color="#FEFEFF"/></linearGradient><linearGradient id="paint4_linear_2_47" x1="53.014" y1="54.556" x2="54.406" y2="48.581" gradientUnits="userSpaceOnUse"><stop stop-color="#195AFE"/><stop offset="1" stop-color="#8AF"/></linearGradient><linearGradient id="paint5_linear_2_47" x1="53.014" y1="60.276" x2="54.406" y2="54.301" gradientUnits="userSpaceOnUse"><stop stop-color="#195AFE"/><stop offset="1" stop-color="#8AF"/></linearGradient><linearGradient id="paint6_linear_2_47" x1="53.014" y1="48.452" x2="75.474" y2="38.301" gradientUnits="userSpaceOnUse"><stop stop-color="#195AFE"/><stop offset="1" stop-color="#8AF"/></linearGradient><linearGradient id="paint7_linear_2_47" x1="68.618" y1="65.708" x2="68.618" y2="72.531" gradientUnits="userSpaceOnUse"><stop stop-color="#90AFFF"/><stop offset="1" stop-color="#3E74FE"/></linearGradient></defs></svg>