<svg width="88" height="71" fill="none" xmlns="http://www.w3.org/2000/svg"><path d="M0 61.926h88v1.105a7.043 7.043 0 0 1-7.043 7.043H7.043A7.043 7.043 0 0 1 0 63.03v-1.105z" fill="url(#paint0_linear_2_17)"/><path d="M8.691 4.166A4.166 4.166 0 0 1 12.857 0h62.997c2.3 0 4.165 1.865 4.165 4.166v50.407a4.166 4.166 0 0 1-4.165 4.166H12.857a4.166 4.166 0 0 1-4.166-4.165V4.166z" fill="url(#paint1_linear_2_17)"/><path fill-rule="evenodd" clip-rule="evenodd" d="M4.445 17.105h22.596v4.697a5.65 5.65 0 0 1-11.298.111 5.65 5.65 0 0 1-11.298-.111v-4.697zm33.897 0H27.047v4.697a5.65 5.65 0 0 0 11.297.154 5.65 5.65 0 0 0 11.297-.12 5.65 5.65 0 0 0 11.299 0 5.65 5.65 0 0 0 11.297.077 5.65 5.65 0 0 0 11.298-.111v-4.697H38.342z" fill="url(#paint2_linear_2_17)"/><path d="M9.984 2.21A2.348 2.348 0 0 1 12.09.901h64.025a2.35 2.35 0 0 1 2.105 1.307l5.535 15.128H4.449L9.984 2.209z" fill="url(#paint3_linear_2_17)"/><defs><linearGradient id="paint0_linear_2_17" x1="11.839" y1="68.005" x2="15.46" y2="50.358" gradientUnits="userSpaceOnUse"><stop stop-color="#195AFE"/><stop offset=".851" stop-color="#A7C0FF"/><stop offset="1" stop-color="#C0D2FF"/></linearGradient><linearGradient id="paint1_linear_2_17" x1="68.633" y1="45.633" x2="19.633" y2="3.928" gradientUnits="userSpaceOnUse"><stop stop-color="#D0DDFF"/><stop offset="1" stop-color="#B5CAFF"/></linearGradient><linearGradient id="paint2_linear_2_17" x1="22" y1="17" x2="71.421" y2="46.35" gradientUnits="userSpaceOnUse"><stop stop-color="#A0BBFF"/><stop offset="1" stop-color="#195AFE"/></linearGradient><linearGradient id="paint3_linear_2_17" x1="4.347" y1="47.645" x2="-1.903" y2="24.712" gradientUnits="userSpaceOnUse"><stop stop-color="#BDD0FF"/><stop offset="1" stop-color="#195AFE"/></linearGradient></defs></svg>