<svg width="73" height="68" fill="none" xmlns="http://www.w3.org/2000/svg"><path d="M52.312 67.083h17.582a2.72 2.72 0 0 0 2.702-3.036L65.4 2.405A2.72 2.72 0 0 0 62.697 0H47.706a2.72 2.72 0 0 1 2.713 2.518l4.606 61.642a2.72 2.72 0 0 1-2.713 2.923z" fill="url(#paint0_linear_2_8)"/><path fill-rule="evenodd" clip-rule="evenodd" d="M7.327.001a2.72 2.72 0 0 0-2.714 2.518L.008 64.161a2.72 2.72 0 0 0 2.713 2.923h49.603a2.72 2.72 0 0 0 2.713-2.923L50.432 2.519A2.72 2.72 0 0 0 47.718.001H7.327zm9.84 10.27c0 5.72 4.637 10.355 10.355 10.355 5.72 0 10.355-4.636 10.355-10.354V9.03a1.797 1.797 0 0 1 3.593 0v1.242c0 7.703-6.244 13.948-13.948 13.948-7.703 0-13.948-6.245-13.948-13.948V9.03a1.797 1.797 0 0 1 3.594 0v1.242z" fill="url(#paint1_linear_2_8)"/><defs><linearGradient id="paint0_linear_2_8" x1="67.487" y1="67.083" x2="36.595" y2="5.581" gradientUnits="userSpaceOnUse"><stop stop-color="#93B2FF"/><stop offset="1" stop-color="#EBF0FD"/></linearGradient><linearGradient id="paint1_linear_2_8" x1="50.443" y1="63.352" x2="-.732" y2="9.529" gradientUnits="userSpaceOnUse"><stop stop-color="#195AFE"/><stop offset="1" stop-color="#91B0FF"/></linearGradient></defs></svg>