<svg width="91" height="73" fill="none" xmlns="http://www.w3.org/2000/svg"><path fill-rule="evenodd" clip-rule="evenodd" d="M90.74 3.819A3.819 3.819 0 0 0 86.92 0H54.464a3.819 3.819 0 0 0-3.819 3.819v12.41a3.819 3.819 0 0 0 3.82 3.818h.542c.92 0 1.666.746 1.666 1.666v3.43c0 .601.664.966 1.172.644l8.648-5.48c.267-.17.576-.26.891-.26h19.538a3.819 3.819 0 0 0 3.818-3.818V3.819zm-11.078 8.843a2.638 2.638 0 1 1 0-5.275 2.638 2.638 0 0 1 0 5.275zm-12.134-2.638a2.638 2.638 0 1 0 5.276 0 2.638 2.638 0 0 0-5.276 0zm-6.858 2.638a2.638 2.638 0 1 1 0-5.275 2.638 2.638 0 0 1 0 5.275z" fill="url(#paint0_linear_2_33)"/><path fill-rule="evenodd" clip-rule="evenodd" d="M29.853 35.836c8.718 0 15.785-7.078 15.785-15.809 0-8.73-7.067-15.808-15.785-15.808-8.719 0-15.786 7.077-15.786 15.808s7.067 15.81 15.786 15.81zM.055 67.011c2.36-14.64 14.803-25.807 29.796-25.807 14.996 0 27.438 11.167 29.799 25.807.446 2.767-1.866 5.054-4.664 5.054H4.719c-2.798 0-5.11-2.287-4.664-5.054zm28.303-24.09h3.188c.688 0 1.271.507 1.368 1.188l2.165 15.153c.054.378-.05.76-.289 1.059l-3.385 4.23a1.382 1.382 0 0 1-2.158 0l-3.409-4.26a1.382 1.382 0 0 1-.297-.994l1.44-15.124a1.382 1.382 0 0 1 1.377-1.251z" fill="url(#paint1_linear_2_33)"/><defs><linearGradient id="paint0_linear_2_33" x1="73.759" y1="31.795" x2="71.794" y2="9.603" gradientUnits="userSpaceOnUse"><stop stop-color="#BDD0FF"/><stop offset="1" stop-color="#195AFE"/></linearGradient><linearGradient id="paint1_linear_2_33" x1="29.851" y1="4.219" x2="12.141" y2="72.053" gradientUnits="userSpaceOnUse"><stop stop-color="#BDD0FF"/><stop offset="1" stop-color="#195AFE"/></linearGradient></defs></svg>