<svg width="87" height="73" viewBox="0 0 87 73" fill="none" xmlns="http://www.w3.org/2000/svg">
<path fill-rule="evenodd" clip-rule="evenodd" d="M44.9268 46.4873H0V49.6799C0 52.5484 2.38474 54.9307 5.25617 54.9307H44.8777C44.8998 52.1345 44.9175 49.2552 44.9268 46.4873Z" fill="url(#paint0_linear_2_47)"/>
<path fill-rule="evenodd" clip-rule="evenodd" d="M10.1049 0H62.0664C63.3317 0 64.2889 0.95616 64.3051 2.07438V24.373H39.6824C41.2308 24.6406 44.4122 26.2191 44.75 30.3928C44.8871 32.0854 44.9361 36.7392 44.9366 42.379H10.1049C9.01798 42.379 8.12573 41.4876 8.12573 40.4018V1.97714C8.12573 0.891336 9.01798 0 10.1049 0Z" fill="url(#paint1_linear_2_47)"/>
<path d="M62.0842 31.2008C64.1958 25.9836 66.7296 24.3784 69.2634 24.3784H36.7459C32.0161 26.3047 32.1006 29.5955 32.9452 31.2008H62.0842Z" fill="url(#paint2_linear_2_47)"/>
<path d="M44.7474 30.3932C44.4096 26.2194 41.2282 24.6409 39.6797 24.3734H71.7749C75.1534 25.6576 76.8426 28.9217 77.2649 30.3932V71.3278C70.0857 71.5954 54.6294 72.2108 50.2374 72.5318C45.8454 72.8529 44.7474 69.1875 44.7474 67.3146C44.8882 56.7465 45.0853 34.5669 44.7474 30.3932Z" fill="url(#paint3_linear_2_47)"/>
<rect x="48.5463" y="52.9509" width="25.3383" height="1.60528" rx="0.802641" fill="url(#paint4_linear_2_47)"/>
<rect x="48.5463" y="58.671" width="25.3383" height="1.60528" rx="0.802641" fill="url(#paint5_linear_2_47)"/>
<rect x="48.5463" y="33.2017" width="25.3383" height="15.2502" rx="0.970342" fill="url(#paint6_linear_2_47)"/>
<path d="M57.4151 65.7084C55.3036 70.9256 52.7698 72.5309 50.2359 72.5309H82.7534C87.4833 70.6045 87.3988 67.3137 86.5542 65.7084H57.4151Z" fill="url(#paint7_linear_2_47)"/>
<defs>
<linearGradient id="paint0_linear_2_47" x1="7.7109" y1="57.4909" x2="7.78837" y2="49.9425" gradientUnits="userSpaceOnUse">
<stop stop-color="#BDD0FF"/>
<stop offset="1" stop-color="#195AFE"/>
</linearGradient>
<linearGradient id="paint1_linear_2_47" x1="17.7679" y1="55.229" x2="19.3262" y2="17.4026" gradientUnits="userSpaceOnUse">
<stop stop-color="#BDD0FF"/>
<stop offset="1" stop-color="#195AFE"/>
</linearGradient>
<linearGradient id="paint2_linear_2_47" x1="50.8815" y1="31.2008" x2="50.8815" y2="24.3784" gradientUnits="userSpaceOnUse">
<stop stop-color="#90AFFF"/>
<stop offset="1" stop-color="#3E74FE"/>
</linearGradient>
<linearGradient id="paint3_linear_2_47" x1="66.7388" y1="56.0135" x2="37.7703" y2="43.0386" gradientUnits="userSpaceOnUse">
<stop stop-color="#D0DDFF"/>
<stop offset="1" stop-color="#FEFEFF"/>
</linearGradient>
<linearGradient id="paint4_linear_2_47" x1="53.014" y1="54.5562" x2="54.4057" y2="48.5807" gradientUnits="userSpaceOnUse">
<stop stop-color="#195AFE"/>
<stop offset="1" stop-color="#88AAFF"/>
</linearGradient>
<linearGradient id="paint5_linear_2_47" x1="53.014" y1="60.2762" x2="54.4057" y2="54.3008" gradientUnits="userSpaceOnUse">
<stop stop-color="#195AFE"/>
<stop offset="1" stop-color="#88AAFF"/>
</linearGradient>
<linearGradient id="paint6_linear_2_47" x1="53.014" y1="48.4519" x2="75.4738" y2="38.3013" gradientUnits="userSpaceOnUse">
<stop stop-color="#195AFE"/>
<stop offset="1" stop-color="#88AAFF"/>
</linearGradient>
<linearGradient id="paint7_linear_2_47" x1="68.6179" y1="65.7084" x2="68.6179" y2="72.5309" gradientUnits="userSpaceOnUse">
<stop stop-color="#90AFFF"/>
<stop offset="1" stop-color="#3E74FE"/>
</linearGradient>
</defs>
</svg>
