<svg width="73" height="68" viewBox="0 0 73 68" fill="none" xmlns="http://www.w3.org/2000/svg">
<path d="M52.3116 67.0832H69.8936C71.5213 67.0832 72.7849 65.6636 72.5961 64.0469L65.3998 2.40534C65.2397 1.03403 64.078 0 62.6974 0H47.7059C49.1299 0 50.313 1.09803 50.4191 2.51811L55.0248 64.1596C55.1428 65.7378 53.8941 67.0832 52.3116 67.0832Z" fill="url(#paint0_linear_2_8)"/>
<path fill-rule="evenodd" clip-rule="evenodd" d="M7.32669 0.000976562C5.90266 0.000976562 4.71952 1.09901 4.61342 2.51908L0.00771585 64.1606C-0.110199 65.7388 1.13844 67.0842 2.72099 67.0842H52.324C53.9065 67.0842 55.1552 65.7388 55.0373 64.1606L50.4316 2.51908C50.3255 1.09901 49.1423 0.000976562 47.7183 0.000976562H7.32669ZM17.1677 10.2716C17.1677 15.9904 21.8037 20.6263 27.5224 20.6263C33.2412 20.6263 37.8771 15.9904 37.8771 10.2716V9.03C37.8771 8.03774 38.6815 7.23335 39.6738 7.23335C40.666 7.23335 41.4704 8.03774 41.4704 9.03V10.2716C41.4704 17.9749 35.2257 24.2196 27.5224 24.2196C19.8191 24.2196 13.5744 17.9749 13.5744 10.2716V9.03C13.5744 8.03774 14.3788 7.23335 15.3711 7.23335C16.3633 7.23335 17.1677 8.03774 17.1677 9.03V10.2716Z" fill="url(#paint1_linear_2_8)"/>
<defs>
<linearGradient id="paint0_linear_2_8" x1="67.4871" y1="67.0832" x2="36.5952" y2="5.58078" gradientUnits="userSpaceOnUse">
<stop stop-color="#93B2FF"/>
<stop offset="1" stop-color="#EBF0FD"/>
</linearGradient>
<linearGradient id="paint1_linear_2_8" x1="50.4427" y1="63.3519" x2="-0.732118" y2="9.52923" gradientUnits="userSpaceOnUse">
<stop stop-color="#195AFE"/>
<stop offset="1" stop-color="#91B0FF"/>
</linearGradient>
</defs>
</svg>
