<svg width="91" height="73" viewBox="0 0 91 73" fill="none" xmlns="http://www.w3.org/2000/svg">
<path fill-rule="evenodd" clip-rule="evenodd" d="M90.7393 3.81855C90.7393 1.70962 89.0297 0 86.9208 0H54.4631C52.3541 0 50.6445 1.70962 50.6445 3.81855V16.2289C50.6445 18.3378 52.3541 20.0474 54.4631 20.0474H55.0064C55.9261 20.0474 56.6717 20.7929 56.6717 21.7126V25.1421C56.6717 25.7441 57.3357 26.1094 57.8442 25.7872L66.4921 20.3061C66.7587 20.1371 67.0679 20.0474 67.3835 20.0474H86.9208C89.0297 20.0474 90.7393 18.3378 90.7393 16.2288V3.81855ZM79.662 12.6623C78.2052 12.6623 77.0242 11.4814 77.0242 10.0245C77.0242 8.56771 78.2052 7.38672 79.662 7.38672C81.1189 7.38672 82.2999 8.56771 82.2999 10.0245C82.2999 11.4814 81.1189 12.6623 79.662 12.6623ZM67.5281 10.0245C67.5281 11.4814 68.7091 12.6623 70.1659 12.6623C71.6228 12.6623 72.8038 11.4814 72.8038 10.0245C72.8038 8.56771 71.6228 7.38672 70.1659 7.38672C68.7091 7.38672 67.5281 8.56771 67.5281 10.0245ZM60.6699 12.6623C59.213 12.6623 58.032 11.4814 58.032 10.0245C58.032 8.56771 59.213 7.38672 60.6699 7.38672C62.1267 7.38672 63.3077 8.56771 63.3077 10.0245C63.3077 11.4814 62.1267 12.6623 60.6699 12.6623Z" fill="url(#paint0_linear_2_33)"/>
<path fill-rule="evenodd" clip-rule="evenodd" d="M29.8527 35.8361C38.5709 35.8361 45.6384 28.7583 45.6384 20.0274C45.6384 11.2965 38.5709 4.21875 29.8527 4.21875C21.1344 4.21875 14.0669 11.2965 14.0669 20.0274C14.0669 28.7583 21.1344 35.8361 29.8527 35.8361ZM0.0553664 67.0107C2.41571 52.3714 14.8578 41.204 29.8512 41.204C44.847 41.204 57.2892 52.3714 59.6496 67.0107C60.0957 69.7775 57.7841 72.0654 54.9856 72.0654H4.71936C1.92088 72.0654 -0.39072 69.7775 0.0553664 67.0107ZM28.3577 42.9219H31.5461C32.2339 42.9219 32.8171 43.4277 32.9144 44.1086L35.0792 59.262C35.1331 59.6397 35.0285 60.0229 34.7902 60.3209L31.4053 64.5519C30.852 65.2436 29.8 65.2436 29.2467 64.5519L25.838 60.2911C25.6137 60.0107 25.5073 59.6541 25.5413 59.2966L26.9817 44.173C27.0492 43.4636 27.6451 42.9219 28.3577 42.9219Z" fill="url(#paint1_linear_2_33)"/>
<defs>
<linearGradient id="paint0_linear_2_33" x1="73.7589" y1="31.7949" x2="71.7936" y2="9.60268" gradientUnits="userSpaceOnUse">
<stop stop-color="#BDD0FF"/>
<stop offset="1" stop-color="#195AFE"/>
</linearGradient>
<linearGradient id="paint1_linear_2_33" x1="29.8514" y1="4.21875" x2="12.141" y2="72.0528" gradientUnits="userSpaceOnUse">
<stop stop-color="#BDD0FF"/>
<stop offset="1" stop-color="#195AFE"/>
</linearGradient>
</defs>
</svg>
