<svg width="88" height="71" viewBox="0 0 88 71" fill="none" xmlns="http://www.w3.org/2000/svg">
<path d="M0 61.9258H88V63.0305C88 66.9205 84.8465 70.0739 80.9566 70.0739H7.04342C3.15345 70.0739 0 66.9205 0 63.0305V61.9258Z" fill="url(#paint0_linear_2_17)"/>
<path d="M8.69141 4.16557C8.69141 1.86499 10.5564 0 12.857 0H75.854C78.1545 0 80.0195 1.86499 80.0195 4.16557V54.5735C80.0195 56.8741 78.1545 58.739 75.854 58.739H12.857C10.5564 58.739 8.69141 56.8741 8.69141 54.5735V4.16557Z" fill="url(#paint1_linear_2_17)"/>
<path fill-rule="evenodd" clip-rule="evenodd" d="M4.44531 17.1055H15.7422H15.7443H27.0412V21.8018C27.0412 24.922 24.5118 27.4514 21.3917 27.4514C18.3088 27.4514 15.8026 24.982 15.7433 21.9133C15.6839 24.982 13.1777 27.4514 10.0948 27.4514C6.97469 27.4514 4.44531 24.922 4.44531 21.8018V17.1055ZM38.3418 17.1055H27.0469V21.8018C27.0469 24.922 29.5762 27.4514 32.6964 27.4514C35.7651 27.4514 38.2623 25.0047 38.3439 21.9557C38.4254 25.0047 40.9226 27.4514 43.9913 27.4514C47.1001 27.4514 49.6224 24.9404 49.6407 21.8359C49.659 24.9404 52.1814 27.4514 55.2901 27.4514C58.3989 27.4514 60.9212 24.9404 60.9396 21.8359C60.9579 24.9404 63.4802 27.4514 66.589 27.4514C69.6719 27.4514 72.1781 24.9819 72.2374 21.9132C72.2967 24.9819 74.8029 27.4514 77.8858 27.4514C81.006 27.4514 83.5354 24.922 83.5354 21.8018V17.1055H72.2385H72.2363H60.9397H60.9395H49.6408H49.6406H38.3459H38.3418Z" fill="url(#paint2_linear_2_17)"/>
<path d="M9.98406 2.20946C10.3799 1.40897 11.1956 0.902344 12.0886 0.902344H76.1142C77.0072 0.902344 77.8229 1.40897 78.2188 2.20947L83.7536 17.337H4.44922L9.98406 2.20946Z" fill="url(#paint3_linear_2_17)"/>
<defs>
<linearGradient id="paint0_linear_2_17" x1="11.8389" y1="68.0048" x2="15.4595" y2="50.3585" gradientUnits="userSpaceOnUse">
<stop stop-color="#195AFE"/>
<stop offset="0.851483" stop-color="#A7C0FF"/>
<stop offset="1" stop-color="#C0D2FF"/>
</linearGradient>
<linearGradient id="paint1_linear_2_17" x1="68.6335" y1="45.6333" x2="19.633" y2="3.92774" gradientUnits="userSpaceOnUse">
<stop stop-color="#D0DDFF"/>
<stop offset="1" stop-color="#B5CAFF"/>
</linearGradient>
<linearGradient id="paint2_linear_2_17" x1="22" y1="17" x2="71.4211" y2="46.3498" gradientUnits="userSpaceOnUse">
<stop stop-color="#A0BBFF"/>
<stop offset="1" stop-color="#195AFE"/>
</linearGradient>
<linearGradient id="paint3_linear_2_17" x1="4.34679" y1="47.6452" x2="-1.90325" y2="24.7117" gradientUnits="userSpaceOnUse">
<stop stop-color="#BDD0FF"/>
<stop offset="1" stop-color="#195AFE"/>
</linearGradient>
</defs>
</svg>
